<?xml version="1.0" encoding="utf-8"?>
<!-- Uploaded to: SVG Repo, www.svgrepo.com, Generator: SVG Repo Mixer Tools -->
<svg width="800px" height="800px" viewBox="0 -0.85 20.047 20.047" xmlns="http://www.w3.org/2000/svg">
  <g id="clouds-strom-2" transform="translate(-2.004 -2.99)">
    <path id="secondary" fill="#2ca9bc" d="M8,10h.1a5,5,0,0,1,9.48-1,3.5,3.5,0,1,1-.08,7H8a3,3,0,0,1,0-6Z"/>
    <path id="primary" d="M13.47,6A4,4,0,0,0,6.53,6,3.17,3.17,0,0,0,6,6a3,3,0,0,0-.78,5.89" fill="none" stroke="#000000" stroke-linecap="round" stroke-linejoin="round" stroke-width="2"/>
    <path id="primary-2" data-name="primary" d="M13,20l2-4H11l2-4" fill="none" stroke="#000000" stroke-linecap="round" stroke-linejoin="round" stroke-width="2"/>
    <path id="primary-3" data-name="primary" d="M7,15.82A3,3,0,0,1,8,10h.1a5,5,0,0,1,9.48-1A3.49,3.49,0,0,1,19,15.65" fill="none" stroke="#000000" stroke-linecap="round" stroke-linejoin="round" stroke-width="2"/>
  </g>
</svg>