<?xml version="1.0" encoding="iso-8859-1"?>
<!-- Uploaded to: SVG Repo, www.svgrepo.com, Generator: SVG Repo Mixer Tools -->
<svg version="1.1" id="Layer_1" xmlns="http://www.w3.org/2000/svg" xmlns:xlink="http://www.w3.org/1999/xlink" 
	 viewBox="0 0 512 512" xml:space="preserve">
<g>
	<path style="fill:#CCCCCC;" d="M475.456,88.151c-0.94-0.09-11.521-0.15-11.521-0.15s0-0.516,0-3.559c0-0.039,0-0.077,0-0.117
		c0-0.068-0.093-0.064-0.153-0.096c-1.929-24.741-22.559-44.227-47.796-44.227c-20.375,0-37.698,12.738-44.664,30.651
		c-5.383-4.113-12.028-6.586-19.325-6.586C334.323,64.066,320,79.412,320,96.131h-32c-22.091,0-40,17.763-40,39.706h256.685v-14.461
		C504.686,104.662,492.094,89.737,475.456,88.151z"/>
	<path style="fill:#CCCCCC;" d="M475.486,88.151c-3.663-0.35-7.681-1.86-11.505-3.923c-1.929-24.741-22.659-44.227-47.895-44.227
		c-20.376,0-37.748,12.738-44.713,30.651c-5.383-4.113-12.053-6.586-19.35-6.586C334.349,64.066,320,79.412,320,96.131h-32
		c-22.091,0-40,17.763-40,39.706h256.685v-14.461C504.686,104.662,492.124,89.737,475.486,88.151z"/>
</g>
<rect style="fill:#8AA7BA;" width="512" height="512"/>
<circle style="fill:#FBB03B;" cx="280.001" cy="287.995" r="112.003"/>
<path style="fill:#CCCCCC;" d="M80.001,344c0-17.673,14.327-32,32-32s32,14.327,32,32l0,0c8.837,0,16.001,7.164,16.001,15.999v8H24
	l0,0c0-13.255,10.746-24,24-24h32V344z"/>
<path style="fill:#B3B3B3;" d="M143.935,344c0-17.673-14.294-32-31.968-32c-4.251,0-8.272,0.868-11.984,2.373
	c11.717,4.751,19.926,16.204,19.926,29.627c8.837,0,15.926,7.163,15.926,16.001v7.803h24.033V360
	C159.869,351.163,152.771,344,143.935,344z"/>
<path id="SVGCleanerId_0" style="fill:#CCCCCC;" d="M184,208.001c0-17.673,14.327-32,32-32s32,14.327,32,32l0,0
	c26.51,0,48.001,21.49,48.001,48.001l0,0H8v-16.001c0-35.346,28.654-64,64-64c2.903,0,5.739,0.26,8.539,0.635
	C84.153,149.197,107.574,128,136,128c30.928,0,56,25.072,56,56"/>
<g>
	<path id="SVGCleanerId_0_1_" style="fill:#CCCCCC;" d="M184,208.001c0-17.673,14.327-32,32-32s32,14.327,32,32l0,0
		c26.51,0,48.001,21.49,48.001,48.001l0,0H8v-16.001c0-35.346,28.654-64,64-64c2.903,0,5.739,0.26,8.539,0.635
		C84.153,149.197,107.574,128,136,128c30.928,0,56,25.072,56,56"/>
</g>
<g>
	<path style="fill:#B3B3B3;" d="M191.815,180.338C189.92,151.125,165.692,128,136,128c-7.078,0-13.845,1.318-20.075,3.716
		c20.045,7.646,41.784,26.432,43.868,48.812c4.748-2.842,10.261-4.528,16.206-4.528
		C181.784,176.001,187.133,177.655,191.815,180.338z"/>
	<path style="fill:#B3B3B3;" d="M248,208.001c0-17.673-14.327-32-32-32c-7.611,0-14.507,2.768-20,7.205
		c7.262,5.866,12,14.733,12,24.795C234.51,208.001,256,229.49,256,256h40C296,229.49,274.509,208.001,248,208.001z"/>
</g>
<path style="fill:#F7931E;" d="M280,176.001c-9.687,0-19.035,1.359-28,3.671c48.281,12.451,84,56.16,84,108.329
	s-35.72,95.878-84,108.329c8.965,2.312,18.313,3.671,28,3.671c61.856,0,112.001-50.144,112.001-112.001S341.856,176.001,280,176.001
	z"/>
<path style="fill:#CCCCCC;" d="M302.974,282.256L302.974,282.256c-15.861,0-28.718,12.857-28.718,28.718l0,0h-14.359
	c-19.826,0-35.897,16.072-35.897,35.897l0,0h280l0,0c0-19.826-16.072-35.897-35.897-35.897h-7.18v-4.721
	c0-38.239-28.857-71.629-67.016-74.099c-34.209-2.215-63.696,19.546-73.291,50.113L302.974,282.256z"/>
<path style="fill:#B3B3B3;" d="M468.103,312.424h-4.168v-6.17c0-38.239-30.363-71.629-68.521-74.099
	c-11.768-0.762-22.408,1.369-32.441,5.663c26.143,11.412,44.538,38.391,44.538,68.436v6.17h4.592
	c19.826,0,35.897,15.673,35.897,31.347h56C504,328.098,487.929,312.424,468.103,312.424z"/>
<path style="fill:#CCCCCC;" d="M475.486,88.151c-3.919-0.374-7.823,0.114-11.375,1.043c0.009-0.4-0.026-0.79-0.026-1.193
	c0-26.51-21.533-48.001-48.043-48.001c-20.373,0-37.759,12.713-44.728,30.622c-5.377-4.096-12.023-6.557-19.304-6.557
	C334.337,64.066,320,79.412,320,96.131h-32c-22.091,0-40,17.763-40,39.706h256.685v-14.461
	C504.686,104.662,492.124,89.737,475.486,88.151z"/>
<path style="fill:#B3B3B3;" d="M475.486,88.151c-3.919-0.374-7.823,0.114-11.375,1.043c0.009-0.4-0.026-0.79-0.026-1.193
	c0-26.51-21.533-48.001-48.043-48.001c-7.137,0-13.886,1.636-19.966,4.434c16.481,7.601,27.933,24.226,27.933,43.567
	c0,0.402-0.055,0.792-0.066,1.193c3.552-0.929,7.248-1.417,11.168-1.043c16.64,1.586,28.823,16.511,28.823,33.225v14.461h40.751
	v-14.461C504.686,104.662,492.124,89.737,475.486,88.151z"/>
<path d="M471.837,87.771h-15.673c0-21.943-18.017-40.049-40.164-40.049c-16.998,0-32.22,10.818-37.881,26.833l-14.778-5.194
	c7.869-22.267,29.03-37.327,52.659-37.327C446.789,32.034,471.837,57.469,471.837,87.771z"/>
<path d="M511.837,143.836H240.164V136c0-26.377,21.459-47.836,47.836-47.836h25.011c3.867-17.764,20.432-32,38.989-32
	c21.966,0,39.837,17.871,39.837,39.837h-15.673c0-13.323-10.84-24.163-24.163-24.163c-13.608,0-24.163,12.989-24.163,24.163v7.837
	H288c-15.033,0-27.69,10.366-31.198,24.326h239.361v-6.788c0-13.093-9.559-24.259-21.763-25.423
	c-6.928-0.665-13.55,1.527-18.648,6.163c-5.03,4.574-7.915,11.093-7.915,17.886h-15.673c0-11.199,4.755-21.945,13.044-29.482
	c8.284-7.532,19.466-11.237,30.679-10.169c20.158,1.923,35.949,19.943,35.949,41.027v22.46H511.837z"/>
<path d="M511.837,346.872c0-23.915-19.294-43.408-43.132-43.73c-1.523-41.839-33.606-76.173-74.291-78.807
	c-4.31-0.28-8.574-0.211-12.761,0.18c-21.825-34.863-60.389-56.351-101.652-56.351c-14.153,0-27.965,2.441-41.114,7.247
	c-6.48-4.564-14.376-7.247-22.886-7.247c-6.185,0-12.046,1.417-17.274,3.943c-5.587-29.536-31.589-51.943-62.726-51.943
	c-29.34,0-54.7,20.187-61.804,48.041c-0.743-0.027-1.472-0.042-2.195-0.042c-39.611,0-71.837,32.226-71.837,71.837v23.837h162.459
	c-1.622,7.917-2.459,16.006-2.459,24.163c0,66.078,53.758,119.837,119.837,119.837c21.037,0,41.732-5.531,59.851-15.994
	c15.872-9.167,29.49-21.938,39.697-37.134h132.289v-7.838H511.837z M15.836,240.001c0-30.969,25.195-56.163,56.163-56.163
	c2.23,0,4.612,0.18,7.5,0.566l7.782,1.042l1.025-7.786c3.142-23.844,23.645-41.823,47.692-41.823
	c26.557,0,48.164,21.606,48.164,48.164h0.061c-5.057,6.679-8.06,14.996-8.06,24h15.673c0-13.324,10.84-24.163,24.163-24.163
	s24.163,10.84,24.163,24.163v7.837H248c19.465,0,35.741,13.918,39.396,32.327H15.836V240.001z M280,392.164
	c-57.436,0-104.164-46.728-104.164-104.164c0-8.185,0.962-16.285,2.833-24.163h125.167V256c0-28.367-21.262-51.859-48.686-55.381
	c-0.845-4.491-2.451-8.714-4.671-12.541c9.533-2.815,19.424-4.241,29.519-4.241c33.87,0,65.645,16.664,85.057,44.042
	c-22.455,7.092-41.024,23.907-49.973,46.549l-12.109-0.008c-17.468,0-32.112,12.315-35.709,28.718h-7.369
	c-24.115,0-43.734,19.619-43.734,43.734v7.837h143.868C340.387,378.401,311.466,392.164,280,392.164z M232.95,339.035
	c3.4-11.672,14.193-20.224,26.947-20.224h22.196v-7.837c0-11.514,9.366-20.88,20.879-20.881l23.397,0.016l1.723-5.493
	c8.852-28.2,35.706-46.565,65.308-44.64c33.468,2.167,59.686,31.28,59.686,66.279v12.558h15.016
	c12.754,0,23.547,8.552,26.947,20.224H232.95V339.035z"/>
<path d="M167.837,375.837H16.164V368c0-17.554,14.282-31.837,31.837-31.837h24.936c3.651-18.226,19.779-32,39.064-32
	c19.683,0,36.077,14.349,39.272,33.135c9.598,3.082,16.564,12.094,16.564,22.703L167.837,375.837L167.837,375.837z M33.866,360.164
	h118.297v-0.163c0-4.501-3.662-8.164-8.164-8.164h-7.837V344c0-13.324-10.84-24.163-24.163-24.163S87.836,330.677,87.836,344v7.837
	H48.001C41.93,351.837,36.63,355.202,33.866,360.164z"/>
<rect x="128.522" y="416.914" style="fill:#CCCCCC;" width="87.771" height="15.673"/>
<g>
	<rect x="216.294" y="432.588" style="fill:#E6E6E6;" width="39.706" height="15.673"/>
	<rect x="72.098" y="456.62" style="fill:#E6E6E6;" width="119.118" height="15.673"/>
</g>
<rect y="288.392" style="fill:#CCCCCC;" width="72.098" height="15.673"/>
<rect x="367.804" y="407.51" style="fill:#E6E6E6;" width="80.457" height="15.673"/>
<g>
	<rect x="335.412" y="424.229" style="fill:#CCCCCC;" width="32.392" height="15.673"/>
	<rect x="383.478" y="176.588" style="fill:#CCCCCC;" width="80.457" height="15.673"/>
</g>
<rect x="472.294" y="233.012" style="fill:#E6E6E6;" width="24.033" height="15.673"/>
<g>
	<rect x="56.424" y="49.11" style="fill:#CCCCCC;" width="111.804" height="15.673"/>
	<rect x="183.902" y="16.718" style="fill:#CCCCCC;" width="111.804" height="15.673"/>
</g>
<rect x="207.935" y="49.11" style="fill:#E6E6E6;" width="24.033" height="15.673"/>
</svg>